<svg width="100" height="24" viewBox="0 0 100 24" fill="none" xmlns="http://www.w3.org/2000/svg">
<path d="M8.38192 23.0399H0.461914V0.69812H8.44737C10.6946 0.69812 12.6292 1.14539 14.251 2.03994C15.8728 2.92721 17.1201 4.20357 17.9928 5.86903C18.8728 7.53448 19.3128 9.52721 19.3128 11.8472C19.3128 14.1745 18.8728 16.1745 17.9928 17.8472C17.1201 19.5199 15.8656 20.8036 14.2292 21.6981C12.6001 22.5927 10.651 23.0399 8.38192 23.0399ZM5.18555 18.9927H8.18555C9.58191 18.9927 10.7565 18.7454 11.7092 18.2508C12.6692 17.749 13.3892 16.9745 13.8692 15.9272C14.3565 14.8727 14.6001 13.5127 14.6001 11.8472C14.6001 10.1963 14.3565 8.84721 13.8692 7.79994C13.3892 6.75267 12.6728 5.98176 11.7201 5.48721C10.7674 4.99267 9.59282 4.74539 8.19646 4.74539H5.18555V18.9927Z" fill="#2F241F"/>
<path d="M29.1322 23.3672C27.4086 23.3672 25.9249 23.0181 24.6813 22.3199C23.4449 21.6145 22.4922 20.6181 21.8231 19.3308C21.154 18.0363 20.8195 16.5054 20.8195 14.7381C20.8195 13.0145 21.154 11.5018 21.8231 10.1999C22.4922 8.89812 23.434 7.88357 24.6486 7.1563C25.8704 6.42903 27.3031 6.06539 28.9468 6.06539C30.0522 6.06539 31.0813 6.24358 32.034 6.59994C32.994 6.94903 33.8304 7.4763 34.5431 8.18176C35.2631 8.88721 35.8231 9.77448 36.2231 10.8436C36.6231 11.9054 36.8231 13.149 36.8231 14.5745V15.8508H22.674V12.9708H32.4486C32.4486 12.3018 32.3031 11.709 32.0122 11.1927C31.7213 10.6763 31.3177 10.2727 30.8013 9.98176C30.2922 9.68357 29.6995 9.53448 29.0231 9.53448C28.3177 9.53448 27.6922 9.69812 27.1468 10.0254C26.6086 10.3454 26.1868 10.7781 25.8813 11.3236C25.5758 11.8618 25.4195 12.4618 25.4122 13.1236V15.8618C25.4122 16.6908 25.5649 17.4072 25.8704 18.0108C26.1831 18.6145 26.6231 19.0799 27.1904 19.4072C27.7577 19.7345 28.4304 19.8981 29.2086 19.8981C29.7249 19.8981 30.1977 19.8254 30.6268 19.6799C31.0558 19.5345 31.4231 19.3163 31.7286 19.0254C32.034 18.7345 32.2668 18.3781 32.4268 17.9563L36.7249 18.2399C36.5068 19.2727 36.0595 20.1745 35.3831 20.9454C34.714 21.709 33.8486 22.3054 32.7868 22.7345C31.7322 23.1563 30.514 23.3672 29.1322 23.3672Z" fill="#2F241F"/>
<path d="M42.838 18.2181L42.8489 12.6436H43.5252L48.8925 6.28357H54.227L47.0161 14.7054H45.9143L42.838 18.2181ZM38.627 23.0399V0.69812H43.2743V23.0399H38.627ZM49.0998 23.0399L44.1689 15.7418L47.267 12.4581L54.5434 23.0399H49.0998Z" fill="#2F241F"/>
<path d="M62.1592 23.3672C60.4646 23.3672 58.9992 23.0072 57.7628 22.2872C56.5337 21.5599 55.5846 20.549 54.9155 19.2545C54.2464 17.9527 53.9119 16.4436 53.9119 14.7272C53.9119 12.9963 54.2464 11.4836 54.9155 10.189C55.5846 8.88721 56.5337 7.8763 57.7628 7.1563C58.9992 6.42903 60.4646 6.06539 62.1592 6.06539C63.8537 6.06539 65.3155 6.42903 66.5446 7.1563C67.781 7.8763 68.7337 8.88721 69.4028 10.189C70.0719 11.4836 70.4064 12.9963 70.4064 14.7272C70.4064 16.4436 70.0719 17.9527 69.4028 19.2545C68.7337 20.549 67.781 21.5599 66.5446 22.2872C65.3155 23.0072 63.8537 23.3672 62.1592 23.3672ZM62.181 19.7672C62.9519 19.7672 63.5955 19.549 64.1119 19.1127C64.6283 18.669 65.0173 18.0654 65.2792 17.3018C65.5482 16.5381 65.6828 15.669 65.6828 14.6945C65.6828 13.7199 65.5482 12.8508 65.2792 12.0872C65.0173 11.3236 64.6283 10.7199 64.1119 10.2763C63.5955 9.83267 62.9519 9.61085 62.181 9.61085C61.4028 9.61085 60.7482 9.83267 60.2173 10.2763C59.6937 10.7199 59.2973 11.3236 59.0282 12.0872C58.7664 12.8508 58.6355 13.7199 58.6355 14.6945C58.6355 15.669 58.7664 16.5381 59.0282 17.3018C59.2973 18.0654 59.6937 18.669 60.2173 19.1127C60.7482 19.549 61.4028 19.7672 62.181 19.7672Z" fill="#2F241F"/>
<path d="M79.7704 23.3672C78.0758 23.3672 76.6104 23.0072 75.374 22.2872C74.1449 21.5599 73.1958 20.549 72.5267 19.2545C71.8576 17.9527 71.5231 16.4436 71.5231 14.7272C71.5231 12.9963 71.8576 11.4836 72.5267 10.189C73.1958 8.88721 74.1449 7.8763 75.374 7.1563C76.6104 6.42903 78.0758 6.06539 79.7704 6.06539C81.4649 6.06539 82.9267 6.42903 84.1558 7.1563C85.3922 7.8763 86.3449 8.88721 87.014 10.189C87.6831 11.4836 88.0176 12.9963 88.0176 14.7272C88.0176 16.4436 87.6831 17.9527 87.014 19.2545C86.3449 20.549 85.3922 21.5599 84.1558 22.2872C82.9267 23.0072 81.4649 23.3672 79.7704 23.3672ZM79.7922 19.7672C80.5631 19.7672 81.2067 19.549 81.7231 19.1127C82.2394 18.669 82.6285 18.0654 82.8904 17.3018C83.1594 16.5381 83.294 15.669 83.294 14.6945C83.294 13.7199 83.1594 12.8508 82.8904 12.0872C82.6285 11.3236 82.2394 10.7199 81.7231 10.2763C81.2067 9.83267 80.5631 9.61085 79.7922 9.61085C79.014 9.61085 78.3594 9.83267 77.8285 10.2763C77.3049 10.7199 76.9085 11.3236 76.6394 12.0872C76.3776 12.8508 76.2467 13.7199 76.2467 14.6945C76.2467 15.669 76.3776 16.5381 76.6394 17.3018C76.9085 18.0654 77.3049 18.669 77.8285 19.1127C78.3594 19.549 79.014 19.7672 79.7922 19.7672Z" fill="#2F241F"/>
<path d="M89.8106 23.0399V6.28357H94.3161V9.20721H94.4906C94.7961 8.16721 95.3088 7.38176 96.0288 6.85085C96.7488 6.31267 97.5779 6.04357 98.5161 6.04357C98.7488 6.04357 98.9997 6.05812 99.2688 6.08721C99.5379 6.1163 99.7743 6.1563 99.9779 6.20721V10.3308C99.7597 10.2654 99.4579 10.2072 99.0725 10.1563C98.687 10.1054 98.3343 10.0799 98.0143 10.0799C97.3307 10.0799 96.7197 10.229 96.1816 10.5272C95.6507 10.8181 95.2288 11.2254 94.9161 11.749C94.6106 12.2727 94.4579 12.8763 94.4579 13.5599V23.0399H89.8106Z" fill="#2F241F"/>
</svg>
